PathFileType	4	(X/Y/Z)	RBDS010\RBDS010runT45.trc
DataRate	CameraRate	NumFrames	NumMarkers	Units	OrigDataRate	OrigDataStartFrame	OrigNumFrames
150.000000	150.000000	5	32	mm	150.000000	562	4500
Frame#	Time	L.ASIS			L.Heel.Bottom			L.Heel.Lateral			L.Heel.Top			L.Iliac.Crest			L.MT5			L.PSIS			L.Shank.Bottom.Lateral			L.Shank.Bottom.Medial			L.Shank.Top.Lateral			L.Shank.Top.Medial			L.Thigh.Bottom.Lateral			L.Thigh.Bottom.Medial			L.Thigh.Top.Lateral			L.Thigh.Top.Medial			R.ASIS			R.ASY			R.Heel.Bottom			R.Heel.Lateral			R.Heel.Top			R.Iliac.Crest			R.MT1			R.MT5			R.PSIS			R.Shank.Bottom.Lateral			R.Shank.Bottom.Medial			R.Shank.Top.Lateral			R.Shank.Top.Medial			R.Thigh.Bottom.Lateral			R.Thigh.Bottom.Medial			R.Thigh.Top.Lateral			R.Thigh.Top.Medial			
		X1	Y1	Z1	X2	Y2	Z2	X3	Y3	Z3	X4	Y4	Z4	X5	Y5	Z5	X6	Y6	Z6	X7	Y7	Z7	X8	Y8	Z8	X9	Y9	Z9	X10	Y10	Z10	X11	Y11	Z11	X12	Y12	Z12	X13	Y13	Z13	X14	Y14	Z14	X15	Y15	Z15	X16	Y16	Z16	X17	Y17	Z17	X18	Y18	Z18	X19	Y19	Z19	X20	Y20	Z20	X21	Y21	Z21	X22	Y22	Z22	X23	Y23	Z23	X24	Y24	Z24	X25	Y25	Z25	X26	Y26	Z26	X27	Y27	Z27	X28	Y28	Z28	X29	Y29	Z29	X30	Y30	Z30	X31	Y31	Z31	X32	Y32	Z32	

563	3.746666666666667	2365.893534293645	932.3978177877043	882.0866138507756	1678.952530142614	274.6504547664134	998.135645174197	1699.055872923303	252.4868590676596	950.8878190232407	1727.816664006427	287.6451029366561	990.3234915636558	2349.609589733395	1029.971548070451	852.8112779426274	1758.496050800144	102.8966315770969	930.6645503130444	2210.58454131474	1010.070660312274	950.2359584833839	1799.184979233272	297.857760030204	927.0880165423799	1779.744867278052	321.2434963999426	971.2520236487744	1840.890135215368	364.0528750862648	908.9241781749371	1821.145767650989	388.6873778218136	952.5429939024019	2070.562270508711	616.2490413630431	870.5357675377595	2026.315654724163	642.0383567283518	922.8721410207949	2106.623560761707	719.8601980445358	855.6966367554537	2068.480682954714	743.2185892292591	907.5610593928438	2374.079620827742	951.6927358669751	1105.588907030112	2465.409334901763	176.4821913346434	1071.683305003989	2280.049566109143	206.047201179047	1067.029294158008	2314.359156490709	212.0180917022772	1109.669960042734	2311.39153274993	243.8334545827161	1064.421867673403	2299.837569523875	1040.481389702779	1149.789749915624	2466.644986776331	114.0993042897499	1018.618493823921	2452.124967047559	124.518625108743	1131.051771899159	2208.309950153133	1013.049337625387	1051.206956832385	2413.710839102769	302.1586729035945	1114.175521802582	2374.015212316785	322.6122328223265	1088.248031579342	2443.979397258988	381.1193370247823	1124.831471623905	2401.300405934134	398.502057932165	1097.014504864811	2495.857031924152	657.3844663292411	1141.696868928305	2449.112306489922	611.4649311179963	1107.869069499213	2411.04724297319	724.739114411741	1160.296515481445	2367.124265537716	681.634374979207	1128.709252298829	
564	3.753333333333333	2367.600971385265	935.1419868772069	882.0689812608599	1670.130638988787	295.2472418623393	992.7525099509373	1689.844214448557	270.8867310400336	946.3144783141755	1720.182039427404	305.1684360146908	985.7220653409515	2352.113272718923	1033.101165854928	853.126834929055	1741.193154261301	115.977169055583	930.2005181046194	2212.839050161976	1014.35388198607	949.7821447937258	1791.191156252789	310.1276138423876	924.0840390440048	1771.769055840974	334.2781691371425	967.7923298004954	1834.888393241232	375.0051567057208	906.2905618175132	1815.128042074745	400.4439186128612	949.4291331405522	2070.173468909093	621.2069100430534	870.0042757610863	2025.638091901369	647.806671889338	921.5987007312521	2107.565170179326	724.2446969904956	854.7883465898116	2068.973767214679	748.4019997744867	905.8875409004212	2374.751067192712	953.6893959444704	1105.412578097645	2492.29762194361	169.0792424820451	1069.261742025364	2305.596261267885	184.6899091687967	1061.100774328399	2338.496993008654	192.6065988794487	1104.609507543191	2333.987598570402	224.6566988592596	1059.706526920038	2300.983882232958	1042.48758222178	1149.647684105254	2499.017126910614	107.7103832648912	1015.181868308182	2481.776279903888	115.4063630261495	1127.485391706103	2210.24846013253	1016.700829744922	1050.856563535743	2429.984288241829	290.7629798020116	1111.216921286526	2389.681257537145	308.2149026436451	1084.130149272448	2453.941285630308	371.6508297820913	1122.610166578755	2411.014256059443	385.8143087172979	1093.389067527201	2493.157024487272	656.3796716246276	1141.557709187149	2445.493860702927	610.7387125177526	1108.438539285479	2409.404768386361	725.1323402655413	1159.904123791136	2364.716986833088	682.5766440473667	1128.681236761293	
565	3.76	2368.817288828979	937.840826085264	881.8380713098992	1661.43341862211	315.5747660069853	987.2700391581038	1680.801624078571	289.11862295895	941.7723304409359	1712.377678520035	322.7313614617805	981.126898976242	2353.430120388805	1036.191970176114	853.3903123360055	1724.740304364647	130.1660367949143	930.0517640968917	2214.519327866095	1018.281512436966	949.6334274595547	1783.673756350717	322.5669272412101	921.2275604465409	1764.345670010807	347.8116815920999	964.2939954413847	1829.819901219643	385.6675227814621	903.6835021811133	1810.154768468173	412.2129730058577	946.1891401792649	2071.478675060285	624.3373625081533	869.2929883511936	2026.309622964813	651.4862888493643	919.956454272845	2109.489596160684	726.9967895719761	853.5830469969609	2070.047833693865	751.7467186274368	903.6864065751463	2375.276472914496	955.3027805176681	1105.024433350271	2518.401325945254	162.7656515702909	1066.768861406737	2331.203969069729	164.4793325166683	1055.330711082863	2362.714620590267	174.1000071565009	1099.642669529604	2356.503154301346	206.4079728608752	1055.174268152175	2302.417143690966	1044.019866480821	1149.552724445131	2530.321841112366	102.935547067626	1011.638725877121	2510.845621508876	107.3691929233559	1123.723665765151	2211.840794417762	1019.929716240094	1050.735957091911	2445.703389637834	279.6633231314788	1108.285841343855	2404.970174744545	294.1137726232428	1080.178261383503	2463.215458709924	361.9276293536464	1120.445598257032	2420.224017641399	372.9044546369362	1090.00098533902	2489.149847951158	654.0649976958636	1141.691825988175	2440.620956313123	609.1394050733114	1108.770529087999	2406.738044594703	724.4671461031205	1159.723045140007	2361.281568813935	682.8398920724402	1128.489458565911	
566	3.766666666666667	2369.670711580781	940.4572139968318	881.4070202290968	1653.025368695555	335.6531842302728	981.799394810649	1671.996870356178	307.1826284766954	937.3436323694124	1704.587888258895	340.3173752197414	976.5631311330163	2353.712195667506	1039.246128476147	853.588102930826	1709.063796696758	145.3469755273483	930.1881505898014	2215.687790171883	1021.755557693698	949.7000313172362	1776.632693624204	335.2099376810209	918.5260784798957	1757.543252900658	361.7863792733048	960.8463943885506	1825.593923878877	396.1115250810802	901.150707930948	1806.192401210239	423.9764399900795	942.9423602403883	2074.266446685515	625.7253616807862	868.4433193216868	2028.199070909045	653.1796606018881	918.0703606834522	2112.25997536354	728.2083969480225	852.1577172248567	2071.663045966574	753.3499661136477	901.119848615347	2375.709152111119	956.631780610915	1104.429237080886	2543.43000270843	157.5561882884656	1064.202355964685	2356.521674203978	145.7559995817924	1049.73034004964	2386.701859998666	156.7914346331967	1094.776596934288	2378.661235077155	189.390682645878	1050.841959270368	2304.091393148945	1045.223789275062	1149.460076120697	2560.177224618002	99.7676003307797	1008.008552674383	2538.988516463863	100.4346932016403	1119.766834433319	2213.103720737618	1022.705424766054	1050.757805562553	2460.739501142775	269.0529446001594	1105.398669277931	2419.714811384789	280.5238201331493	1076.442188643911	2471.74815579459	352.1473441887737	1118.351998282302	2428.827415525158	359.9933151006418	1086.905529500448	2483.853156693737	650.5390315049897	1142.067042269335	2434.555106192287	606.7938689691814	1108.783262900021	2403.077313726458	722.8202297054554	1159.72455124386	2356.881061570379	682.5064320939741	1128.08711572679	
567	3.773333333333333	2370.295020436227	942.9279244849603	880.7995595928465	1645.228019670583	355.5361720860325	976.4519623686906	1663.63439000772	325.1198305690804	933.0984878450512	1697.152678317223	357.9030509588637	972.0522393706352	2353.158345709956	1042.227765123391	853.7082676363121	1694.127052014791	161.4142951299985	930.5478625921024	2216.434735844842	1024.675302585238	949.8762271266934	1770.158858717197	348.0606236321805	915.9647017739502	1751.510247499985	376.0954478460402	957.524230495426	1822.187166744252	406.3962274658327	898.7237490784496	1803.262848688056	435.6884002676976	939.7961104414599	2078.279397207339	625.5357934572144	867.5027738511875	2031.160250693763	653.0669189592974	916.0918190750476	2115.713203499445	728.0355362197048	850.6118834126164	2073.788178569103	753.3697823923566	898.3962667648336	2376.090935473997	957.760256349181	1103.647550289013	2567.069846344547	153.3967230525407	1061.572270627254	2381.139730673837	128.8191714462917	1044.287587653645	2410.079803241198	140.9369135373878	1090.002588720775	2400.137617972651	173.873676990279	1046.70784805205	2305.920854837776	1046.230900491869	1149.32285791746	2588.189484487305	98.11102301853452	1004.323851894771	2565.807443778017	94.56511095988527	1115.628334173984	2214.070629486826	1024.999093652447	1050.825745806479	2474.933979075899	259.1068189033454	1102.572264922066	2433.72447230293	267.6479059539771	1072.953293813472	2479.470960858285	342.5109742142797	1116.338473895551	2436.715329218262	347.3093636924023	1084.126854525714	2477.353926196867	645.9502609196886	1142.634139800444	2427.41446833094	603.8382513669773	1108.438905806816	2398.507667401519	720.3095301301925	1159.86524636609	2351.625778643274	681.6658972277507	1127.45722771142	
